<?xml version="1.0" encoding="utf-8"?>
<!-- Svg Vector Icons : http://www.onlinewebfonts.com/icon -->
<!DOCTYPE svg PUBLIC "-//W3C//DTD SVG 1.1//EN" "http://www.w3.org/Graphics/SVG/1.1/DTD/svg11.dtd">
<svg version="1.1" xmlns="http://www.w3.org/2000/svg" xmlns:xlink="http://www.w3.org/1999/xlink" x="0px" y="0px" viewBox="0 0 1000 1000" enable-background="new 0 0 1000 1000" xml:space="preserve">
<metadata> Svg Vector Icons : http://www.onlinewebfonts.com/icon </metadata>
<g><g transform="translate(0.000000,511.000000) scale(0.100000,-0.100000)"><path d="M7639.2,4241.7l-770.3-770.3l42.4-458.3l40.4-458.3l-1038-1039.9C5341.8,941.1,4866.2,450,4854.6,421.1c-69.3-188.7,55.8-417.9,256.1-467.9c28.9-5.8,94.4-5.8,144.4,1.9c88.6,11.5,104,27,1140,1059.1l1049.5,1047.6l458.3-40.4l458.3-42.4l770.3,770.3c421.7,421.7,768.4,772.2,768.4,778c0,5.8-298.5,38.5-666.3,71.3c-365.9,32.7-670.2,63.5-675.9,69.3c-5.8,5.8-36.6,310-69.3,675.9c-32.7,367.8-65.5,666.3-71.3,666.3C8411.4,5010.1,8060.9,4663.5,7639.2,4241.7z"/><path d="M4662,4883c-1251.7-86.7-2384-610.4-3227.5-1492.4C386.9,2292.9-86.8,742.7,167.4-757.4c77-458.3,211.8-878.1,421.7-1309.5c258-531.5,498.8-866.6,934-1299.9c433.3-433.3,766.4-674,1299.9-934c893.5-435.2,1879.5-583.5,2869.3-431.4c75.1,11.6,260,50.1,414,88.6c1594.5,387.1,2900.1,1590.6,3418.2,3154.3c173.3,518,244.6,964.8,244.6,1530.9c1.9,554.6-71.3,1022.6-234.9,1521.3c-65.5,200.3-223.4,581.6-269.6,654.7c-15.4,23.1-82.8-36.6-344.7-298.5L8592.4,1592l86.7-252.3C9020,336.4,8958.3-717,8503.9-1668.3c-211.8-441-450.6-770.3-810.7-1122.7C6944-3517,5985-3906,4941.3-3906c-1929.6,0-3541.4,1348-3901.5,3264.1c-57.8,306.2-71.2,845.4-28.9,1178.5c111.7,880,475.7,1636.9,1088,2266.6c335.1,342.8,647,573.9,1051.4,776.1c964.8,485.3,2052.8,560.4,3079.2,209.9l252.3-86.7l327.4,327.4c261.9,261.9,321.6,329.3,298.5,344.7c-15.4,9.6-119.4,59.7-231.1,107.8c-400.5,177.2-862.7,304.3-1309.5,362C5336.1,4875.3,4843.1,4894.6,4662,4883z"/><path d="M4479.1,3094c-1003.3-157.9-1841-768.4-2291.6-1663.8C1484.6,22.5,1944.8-1676,3265.9-2538.7c689.4-450.6,1602.2-602.8,2407.2-402.5c756.8,190.6,1394.2,635.5,1823.7,1278.7c325.4,485.3,487.2,989.8,510.3,1590.6c13.5,348.6-9.6,577.7-90.5,895.5c-53.9,211.8-192.6,570-271.5,699l-40.4,65.5l-325.4-325.4l-325.5-325.4l50.1-134.8c383.2-1053.4-94.4-2237.7-1097.7-2724.9c-616.2-298.5-1301.8-302.3-1912.2-9.6c-244.6,115.5-390.9,219.5-589.3,412.1C2898.1-1027,2659.3-326,2763.3,369.1c173.3,1145.8,1186.2,1954.6,2337.8,1866c231.1-17.3,410.2-53.9,597-125.2l127.1-48.1l327.4,327.4l325.4,325.4l-65.5,40.4c-221.5,134.8-677.9,285-1028.3,338.9C5153.1,3128.7,4694.8,3128.7,4479.1,3094z"/><path d="M4681.3,1341.6c-394.8-79-751-352.4-924.3-708.7c-373.6-774.1,65.5-1686.9,897.4-1873.7c111.7-23.1,198.3-28.9,352.4-21.2c362.1,19.3,595.1,123.3,858.9,389c188.7,186.8,286.9,350.5,346.6,577.7c36.6,140.6,57.8,389,40.4,462.2c-13.5,50.1-21.2,44.3-306.2-234.9c-321.6-315.8-417.9-377.4-643.2-415.9c-514.2-84.7-980.2,387.1-895.5,903.1c36.6,221.5,96.3,313.9,412.1,635.5c217.6,221.5,279.2,294.6,256.1,304.3C5026,1378.2,4816.1,1368.6,4681.3,1341.6z"/></g></g>
</svg>